<svg width="12" height="12" viewBox="0 0 12 12" fill="none" xmlns="http://www.w3.org/2000/svg">
<path d="M11.7103 5.28984L6.71032 0.289835C6.61521 0.198795 6.50307 0.12743 6.38032 0.0798353C6.13685 -0.0201827 5.86378 -0.0201827 5.62032 0.0798353C5.49756 0.12743 5.38542 0.198795 5.29032 0.289835L0.290315 5.28984C0.197077 5.38307 0.123116 5.49376 0.0726557 5.61559C0.0221954 5.73741 -0.00377655 5.86798 -0.00377655 5.99984C-0.00377655 6.26614 0.102011 6.52153 0.290315 6.70984C0.478619 6.89814 0.734014 7.00393 1.00032 7.00393C1.26662 7.00393 1.52201 6.89814 1.71032 6.70984L5.00032 3.40984V10.9998C5.00032 11.2651 5.10567 11.5194 5.29321 11.7069C5.48074 11.8945 5.7351 11.9998 6.00032 11.9998C6.26553 11.9998 6.51989 11.8945 6.70742 11.7069C6.89496 11.5194 7.00032 11.2651 7.00032 10.9998V3.40984L10.2903 6.70984C10.3833 6.80356 10.4939 6.87796 10.6157 6.92873C10.7376 6.9795 10.8683 7.00563 11.0003 7.00563C11.1323 7.00563 11.263 6.9795 11.3849 6.92873C11.5068 6.87796 11.6174 6.80356 11.7103 6.70984C11.804 6.61687 11.8784 6.50627 11.9292 6.38441C11.98 6.26255 12.0061 6.13185 12.0061 5.99984C12.0061 5.86782 11.98 5.73712 11.9292 5.61526C11.8784 5.4934 11.804 5.3828 11.7103 5.28984Z" fill="#FD8589"/>
</svg>
